<svg width="189" height="37" viewBox="0 0 189 37" fill="none" xmlns="http://www.w3.org/2000/svg">
<path d="M25.84 12.048H30.4C30.144 10.224 29.6 8.624 28.768 7.248C27.936 5.84 26.896 4.672 25.648 3.744C24.4 2.816 22.976 2.112 21.376 1.632C19.776 1.152 18.08 0.912 16.288 0.912C13.664 0.912 11.328 1.392 9.28 2.352C7.264 3.28 5.568 4.56 4.192 6.192C2.848 7.824 1.824 9.744 1.12 11.952C0.416 14.128 0.0640001 16.464 0.0640001 18.96C0.0640001 21.456 0.384 23.792 1.024 25.968C1.696 28.144 2.688 30.032 4 31.632C5.312 33.232 6.96 34.496 8.944 35.424C10.928 36.32 13.248 36.768 15.904 36.768C20.288 36.768 23.744 35.568 26.272 33.168C28.8 30.768 30.288 27.408 30.736 23.088H26.176C26.08 24.496 25.792 25.808 25.312 27.024C24.832 28.24 24.16 29.296 23.296 30.192C22.464 31.056 21.456 31.744 20.272 32.256C19.12 32.736 17.792 32.976 16.288 32.976C14.24 32.976 12.48 32.592 11.008 31.824C9.536 31.056 8.32 30.032 7.36 28.752C6.432 27.44 5.744 25.92 5.296 24.192C4.848 22.432 4.624 20.576 4.624 18.624C4.624 16.832 4.848 15.104 5.296 13.44C5.744 11.776 6.432 10.304 7.36 9.024C8.32 7.712 9.52 6.672 10.96 5.904C12.432 5.136 14.192 4.752 16.24 4.752C18.64 4.752 20.704 5.36 22.432 6.576C24.192 7.792 25.328 9.616 25.84 12.048ZM38.6886 23.616C38.6886 22.112 38.8806 20.784 39.2646 19.632C39.6806 18.448 40.2406 17.456 40.9446 16.656C41.6486 15.856 42.4646 15.248 43.3926 14.832C44.3526 14.416 45.3606 14.208 46.4166 14.208C47.4726 14.208 48.4646 14.416 49.3926 14.832C50.3526 15.248 51.1846 15.856 51.8886 16.656C52.5926 17.456 53.1366 18.448 53.5206 19.632C53.9366 20.784 54.1446 22.112 54.1446 23.616C54.1446 25.12 53.9366 26.464 53.5206 27.648C53.1366 28.8 52.5926 29.776 51.8886 30.576C51.1846 31.344 50.3526 31.936 49.3926 32.352C48.4646 32.768 47.4726 32.976 46.4166 32.976C45.3606 32.976 44.3526 32.768 43.3926 32.352C42.4646 31.936 41.6486 31.344 40.9446 30.576C40.2406 29.776 39.6806 28.8 39.2646 27.648C38.8806 26.464 38.6886 25.12 38.6886 23.616ZM34.3686 23.616C34.3686 25.44 34.6246 27.136 35.1366 28.704C35.6486 30.272 36.4166 31.648 37.4406 32.832C38.4646 33.984 39.7286 34.896 41.2326 35.568C42.7366 36.208 44.4646 36.528 46.4166 36.528C48.4006 36.528 50.1286 36.208 51.6006 35.568C53.1046 34.896 54.3686 33.984 55.3926 32.832C56.4166 31.648 57.1846 30.272 57.6966 28.704C58.2086 27.136 58.4646 25.44 58.4646 23.616C58.4646 21.792 58.2086 20.096 57.6966 18.528C57.1846 16.928 56.4166 15.552 55.3926 14.4C54.3686 13.216 53.1046 12.288 51.6006 11.616C50.1286 10.944 48.4006 10.608 46.4166 10.608C44.4646 10.608 42.7366 10.944 41.2326 11.616C39.7286 12.288 38.4646 13.216 37.4406 14.4C36.4166 15.552 35.6486 16.928 35.1366 18.528C34.6246 20.096 34.3686 21.792 34.3686 23.616ZM66.2511 23.616C66.2511 22.112 66.4431 20.784 66.8271 19.632C67.2431 18.448 67.8031 17.456 68.5071 16.656C69.2111 15.856 70.0271 15.248 70.9551 14.832C71.9151 14.416 72.9231 14.208 73.9791 14.208C75.0351 14.208 76.0271 14.416 76.9551 14.832C77.9151 15.248 78.7471 15.856 79.4511 16.656C80.1551 17.456 80.6991 18.448 81.0831 19.632C81.4991 20.784 81.7071 22.112 81.7071 23.616C81.7071 25.12 81.4991 26.464 81.0831 27.648C80.6991 28.8 80.1551 29.776 79.4511 30.576C78.7471 31.344 77.9151 31.936 76.9551 32.352C76.0271 32.768 75.0351 32.976 73.9791 32.976C72.9231 32.976 71.9151 32.768 70.9551 32.352C70.0271 31.936 69.2111 31.344 68.5071 30.576C67.8031 29.776 67.2431 28.8 66.8271 27.648C66.4431 26.464 66.2511 25.12 66.2511 23.616ZM61.9311 23.616C61.9311 25.44 62.1871 27.136 62.6991 28.704C63.2111 30.272 63.9791 31.648 65.0031 32.832C66.0271 33.984 67.2911 34.896 68.7951 35.568C70.2991 36.208 72.0271 36.528 73.9791 36.528C75.9631 36.528 77.6911 36.208 79.1631 35.568C80.6671 34.896 81.9311 33.984 82.9551 32.832C83.9791 31.648 84.7471 30.272 85.2591 28.704C85.7711 27.136 86.0271 25.44 86.0271 23.616C86.0271 21.792 85.7711 20.096 85.2591 18.528C84.7471 16.928 83.9791 15.552 82.9551 14.4C81.9311 13.216 80.6671 12.288 79.1631 11.616C77.6911 10.944 75.9631 10.608 73.9791 10.608C72.0271 10.608 70.2991 10.944 68.7951 11.616C67.2911 12.288 66.0271 13.216 65.0031 14.4C63.9791 15.552 63.2111 16.928 62.6991 18.528C62.1871 20.096 61.9311 21.792 61.9311 23.616ZM91.0776 1.728V36H95.1576V1.728H91.0776ZM106.71 18.144V5.568H115.638C118.23 5.568 120.118 6.112 121.302 7.2C122.518 8.256 123.126 9.808 123.126 11.856C123.126 13.904 122.518 15.472 121.302 16.56C120.118 17.648 118.23 18.176 115.638 18.144H106.71ZM102.15 1.728V36H106.71V21.984H117.174C120.63 22.016 123.238 21.136 124.998 19.344C126.79 17.552 127.686 15.056 127.686 11.856C127.686 8.656 126.79 6.176 124.998 4.416C123.238 2.624 120.63 1.728 117.174 1.728H102.15ZM136.923 6.72V1.728H132.843V6.72H136.923ZM132.843 11.184V36H136.923V11.184H132.843ZM160.092 19.152H164.316C164.156 17.68 163.772 16.416 163.164 15.36C162.556 14.272 161.772 13.376 160.812 12.672C159.884 11.968 158.796 11.456 157.548 11.136C156.332 10.784 155.02 10.608 153.612 10.608C151.66 10.608 149.948 10.96 148.476 11.664C147.004 12.336 145.772 13.28 144.78 14.496C143.82 15.68 143.1 17.088 142.62 18.72C142.14 20.32 141.9 22.048 141.9 23.904C141.9 25.76 142.14 27.472 142.62 29.04C143.132 30.576 143.868 31.904 144.828 33.024C145.82 34.144 147.036 35.008 148.476 35.616C149.948 36.224 151.628 36.528 153.516 36.528C156.684 36.528 159.18 35.696 161.004 34.032C162.86 32.368 164.012 30 164.46 26.928H160.284C160.028 28.848 159.324 30.336 158.172 31.392C157.052 32.448 155.484 32.976 153.468 32.976C152.188 32.976 151.084 32.72 150.156 32.208C149.228 31.696 148.476 31.024 147.9 30.192C147.324 29.328 146.892 28.352 146.604 27.264C146.348 26.176 146.22 25.056 146.22 23.904C146.22 22.656 146.348 21.456 146.604 20.304C146.86 19.12 147.276 18.08 147.852 17.184C148.46 16.288 149.26 15.568 150.252 15.024C151.244 14.48 152.476 14.208 153.948 14.208C155.676 14.208 157.052 14.64 158.076 15.504C159.1 16.368 159.772 17.584 160.092 19.152ZM171.521 28.176H167.441C167.505 29.712 167.825 31.024 168.401 32.112C168.977 33.168 169.745 34.032 170.705 34.704C171.665 35.344 172.769 35.808 174.017 36.096C175.265 36.384 176.577 36.528 177.953 36.528C179.201 36.528 180.449 36.4 181.697 36.144C182.977 35.92 184.113 35.504 185.105 34.896C186.129 34.288 186.945 33.488 187.553 32.496C188.193 31.504 188.513 30.256 188.513 28.752C188.513 27.568 188.273 26.576 187.793 25.776C187.345 24.976 186.737 24.32 185.969 23.808C185.233 23.264 184.369 22.832 183.377 22.512C182.417 22.192 181.425 21.92 180.401 21.696C179.441 21.472 178.481 21.264 177.521 21.072C176.561 20.848 175.697 20.592 174.929 20.304C174.161 19.984 173.521 19.6 173.009 19.152C172.529 18.672 172.289 18.08 172.289 17.376C172.289 16.736 172.449 16.224 172.769 15.84C173.089 15.424 173.505 15.104 174.017 14.88C174.529 14.624 175.089 14.448 175.697 14.352C176.337 14.256 176.961 14.208 177.569 14.208C178.241 14.208 178.897 14.288 179.537 14.448C180.209 14.576 180.817 14.8 181.361 15.12C181.905 15.44 182.353 15.872 182.705 16.416C183.057 16.928 183.265 17.584 183.329 18.384H187.409C187.313 16.88 186.993 15.632 186.449 14.64C185.905 13.616 185.169 12.816 184.241 12.24C183.345 11.632 182.305 11.216 181.121 10.992C179.937 10.736 178.641 10.608 177.233 10.608C176.145 10.608 175.041 10.752 173.921 11.04C172.833 11.296 171.841 11.712 170.945 12.288C170.081 12.832 169.361 13.552 168.785 14.448C168.241 15.344 167.969 16.416 167.969 17.664C167.969 19.264 168.369 20.512 169.169 21.408C169.969 22.304 170.961 23.008 172.145 23.52C173.361 24 174.673 24.384 176.081 24.672C177.489 24.928 178.785 25.232 179.969 25.584C181.185 25.904 182.193 26.336 182.993 26.88C183.793 27.424 184.193 28.224 184.193 29.28C184.193 30.048 184.001 30.688 183.617 31.2C183.233 31.68 182.737 32.048 182.129 32.304C181.553 32.56 180.913 32.736 180.209 32.832C179.505 32.928 178.833 32.976 178.193 32.976C177.361 32.976 176.545 32.896 175.745 32.736C174.977 32.576 174.273 32.32 173.633 31.968C173.025 31.584 172.529 31.088 172.145 30.48C171.761 29.84 171.553 29.072 171.521 28.176Z" fill="white"/>
</svg>
